<svg xmlns="http://www.w3.org/2000/svg" xmlns:xlink="http://www.w3.org/1999/xlink" version="1.1" id="Layer_1" x="0px" y="0px" xml:space="preserve" viewBox="150 0 160 160">
  <g id="XMLID_3358_">
    <path id="XMLID_3315_" style="fill:#DAEDE3;" d="M230 160L230 160c-44.183 0 -80 -35.817 -80 -80l0 0c0 -44.183 35.817 -80 80 -80l0 0c44.183 0 80 35.817 80 80l0 0C310 124.183 274.183 160 230 160z"/>
    <path id="XMLID_3314_" style="fill:#C6524A;" d="M275 80c0 8.284 -6.716 15 -15 15h-15v15c0 8.284 -6.716 15 -15 15s-15 -6.716 -15 -15V95h-15c-8.284 0 -15 -6.716 -15 -15s6.716 -15 15 -15h15V50c0 -8.284 6.716 -15 15 -15s15 6.716 15 15v15h15C268.284 65 275 71.716 275 80z"/>
    <path id="XMLID_3313_" style="fill:#D3625F;" d="M215 95.23V95h-15c-8.284 0 -15 -6.716 -15 -15s6.716 -15 15 -15h15V50c0 -8.284 6.716 -15 15 -15s15 6.716 15 15v15h0.23L215 95.23z"/>
  </g>
</svg>